<svg xmlns="http://www.w3.org/2000/svg" xmlns:xlink="http://www.w3.org/1999/xlink" width="593px" height="288px" version="1.1"><defs/><g transform="translate(0.5,0.5)"><rect x="1" y="2" width="110" height="50" fill="#ffffff" stroke="#000000" pointer-events="none"/><g fill="#000000" font-family="Helvetica" text-anchor="middle" font-size="12px"><text x="56" y="31">Mandelbrot</text></g><rect x="1" y="72" width="110" height="50" fill="#ffffff" stroke="#000000" pointer-events="none"/><g fill="#000000" font-family="Helvetica" text-anchor="middle" font-size="12px"><text x="56" y="101">Julia</text></g><rect x="201" y="37" width="110" height="50" fill="#ffffff" stroke="#000000" pointer-events="none"/><g fill="#000000" font-family="Helvetica" text-anchor="middle" font-size="12px"><text x="256" y="66">Job</text></g><path d="M 111 27 L 201 62" fill="none" stroke="#000000" stroke-miterlimit="10" pointer-events="none"/><path d="M 111 83 L 201 62" fill="none" stroke="#000000" stroke-miterlimit="10" pointer-events="none"/><rect x="441" y="37" width="110" height="50" fill="#ffffff" stroke="#000000" pointer-events="none"/><g fill="#000000" font-family="Helvetica" text-anchor="middle" font-size="12px"><text x="496" y="66">JobDistributor</text></g><path d="M 311 62 L 441 62" fill="none" stroke="#000000" stroke-miterlimit="10" pointer-events="none"/><rect x="481" y="147" width="110" height="50" fill="#ffffff" stroke="#000000" pointer-events="none"/><g fill="#000000" font-family="Helvetica" text-anchor="middle" font-size="12px"><text x="536" y="176">Work</text></g><path d="M 536 147 L 536 117 L 496 117 L 496 93" fill="none" stroke="#000000" stroke-miterlimit="10" pointer-events="none"/><path d="M 496 88 L 499 95 L 496 93 L 492 95 Z" fill="#000000" stroke="#000000" stroke-miterlimit="10" pointer-events="none"/><rect x="91" y="237" width="110" height="50" fill="#ffffff" stroke="#000000" pointer-events="none"/><g fill="#000000" font-family="Helvetica" text-anchor="middle" font-size="12px"><text x="146" y="266">GUI</text></g><path d="M 201 247 L 481 172" fill="none" stroke="#000000" stroke-miterlimit="10" pointer-events="none"/></g></svg>